<mxfile host="65bd71144e">
    <diagram id="MeBAB6t_dqrryQv9Uune" name="Page-1">
        <mxGraphModel dx="881" dy="609" grid="1" gridSize="10" guides="1" tooltips="1" connect="1" arrows="1" fold="1" page="1" pageScale="1" pageWidth="850" pageHeight="1100" math="0" shadow="0">
            <root>
                <mxCell id="0"/>
                <mxCell id="1" parent="0"/>
                <mxCell id="2" value="&lt;font style=&quot;font-size: 24px&quot;&gt;Logo&lt;/font&gt;" style="rounded=0;whiteSpace=wrap;html=1;" parent="1" vertex="1">
                    <mxGeometry x="30" y="10" width="100" height="40" as="geometry"/>
                </mxCell>
                <mxCell id="11" value="next" style="strokeWidth=1;shadow=0;dashed=0;align=center;html=1;shape=mxgraph.mockup.buttons.button;strokeColor=#666666;fontColor=#ffffff;mainText=;buttonStyle=round;fontSize=17;fontStyle=1;fillColor=#008cff;whiteSpace=wrap;" parent="1" vertex="1">
                    <mxGeometry x="265" y="340" width="150" height="50" as="geometry"/>
                </mxCell>
                <mxCell id="21" value="&lt;font style=&quot;font-size: 15px&quot;&gt;thông tin nhân viên&lt;/font&gt;" style="rounded=1;whiteSpace=wrap;html=1;fontSize=24;" parent="1" vertex="1">
                    <mxGeometry x="80" y="120" width="120" height="60" as="geometry"/>
                </mxCell>
                <mxCell id="22" value="&lt;span style=&quot;font-size: 15px&quot;&gt;thông tin nhân viên&lt;/span&gt;" style="rounded=1;whiteSpace=wrap;html=1;fontSize=24;" parent="1" vertex="1">
                    <mxGeometry x="280" y="120" width="120" height="60" as="geometry"/>
                </mxCell>
                <mxCell id="23" value="&lt;span style=&quot;font-size: 15px&quot;&gt;thông tin nhân viên&lt;/span&gt;" style="rounded=1;whiteSpace=wrap;html=1;fontSize=24;" parent="1" vertex="1">
                    <mxGeometry x="280" y="200" width="120" height="60" as="geometry"/>
                </mxCell>
                <mxCell id="24" value="&lt;span style=&quot;font-size: 15px&quot;&gt;thông tin nhân viên&lt;/span&gt;" style="rounded=1;whiteSpace=wrap;html=1;fontSize=24;" parent="1" vertex="1">
                    <mxGeometry x="80" y="200" width="120" height="60" as="geometry"/>
                </mxCell>
                <mxCell id="25" value="&lt;span style=&quot;font-size: 15px&quot;&gt;thông tin nhân viên&lt;/span&gt;" style="rounded=1;whiteSpace=wrap;html=1;fontSize=24;" parent="1" vertex="1">
                    <mxGeometry x="480" y="120" width="120" height="60" as="geometry"/>
                </mxCell>
                <mxCell id="26" value="&lt;span style=&quot;font-size: 15px&quot;&gt;thông tin nhân viên&lt;/span&gt;" style="rounded=1;whiteSpace=wrap;html=1;fontSize=24;" parent="1" vertex="1">
                    <mxGeometry x="480" y="200" width="120" height="60" as="geometry"/>
                </mxCell>
                <mxCell id="27" value="&amp;nbsp;search" style="rounded=0;whiteSpace=wrap;html=1;fontSize=15;fillColor=#f0a30a;fontColor=#000000;strokeColor=#BD7000;align=left;" parent="1" vertex="1">
                    <mxGeometry x="630" y="20" width="120" height="20" as="geometry"/>
                </mxCell>
                <mxCell id="28" value="Layer 1" style="strokeWidth=1;shadow=0;dashed=0;align=center;html=1;shape=mxgraph.mockup.navigation.anchor;fontSize=17;fontColor=#666666;fontStyle=1;" vertex="1" parent="1">
                    <mxGeometry x="80" y="70" width="60" height="30" as="geometry"/>
                </mxCell>
                <mxCell id="29" value="&gt;" style="strokeWidth=1;shadow=0;dashed=0;align=center;html=1;shape=mxgraph.mockup.navigation.anchor;fontSize=24;fontColor=#aaaaaa;fontStyle=1;" vertex="1" parent="1">
                    <mxGeometry x="140" y="70" width="20" height="30" as="geometry"/>
                </mxCell>
                <mxCell id="30" value="Layer 2" style="strokeWidth=1;shadow=0;dashed=0;align=center;html=1;shape=mxgraph.mockup.navigation.anchor;fontSize=17;fontColor=#666666;fontStyle=1;" vertex="1" parent="1">
                    <mxGeometry x="160" y="70" width="60" height="30" as="geometry"/>
                </mxCell>
                <mxCell id="31" value="&gt;" style="strokeWidth=1;shadow=0;dashed=0;align=center;html=1;shape=mxgraph.mockup.navigation.anchor;fontSize=24;fontColor=#aaaaaa;fontStyle=1;" vertex="1" parent="1">
                    <mxGeometry x="220" y="70" width="20" height="30" as="geometry"/>
                </mxCell>
                <mxCell id="32" value="Layer 3" style="strokeWidth=1;shadow=0;dashed=0;align=center;html=1;shape=mxgraph.mockup.navigation.anchor;fontSize=17;fontColor=#666666;fontStyle=1;" vertex="1" parent="1">
                    <mxGeometry x="240" y="70" width="60" height="30" as="geometry"/>
                </mxCell>
                <mxCell id="33" value="&gt;" style="strokeWidth=1;shadow=0;dashed=0;align=center;html=1;shape=mxgraph.mockup.navigation.anchor;fontSize=24;fontColor=#aaaaaa;fontStyle=1;" vertex="1" parent="1">
                    <mxGeometry x="300" y="70" width="20" height="30" as="geometry"/>
                </mxCell>
                <mxCell id="34" value="Layer 4" style="strokeWidth=1;shadow=0;dashed=0;align=center;html=1;shape=mxgraph.mockup.navigation.anchor;fontSize=17;fontColor=#008cff;fontStyle=1;" vertex="1" parent="1">
                    <mxGeometry x="320" y="70" width="60" height="30" as="geometry"/>
                </mxCell>
                <mxCell id="35" value="" style="strokeWidth=1;shadow=0;dashed=0;align=center;html=1;shape=mxgraph.mockup.text.rrect;rSize=0;strokeColor=#666666;fontSize=15;" vertex="1" parent="1">
                    <mxGeometry x="190" y="20" width="350" height="25" as="geometry"/>
                </mxCell>
                <mxCell id="36" value="Departments" style="strokeColor=inherit;fillColor=inherit;gradientColor=inherit;strokeWidth=1;shadow=0;dashed=0;align=center;html=1;shape=mxgraph.mockup.text.rrect;rSize=0;fontSize=17;fontColor=#0000ff;" vertex="1" parent="35">
                    <mxGeometry x="107.69" width="122.31" height="25" as="geometry"/>
                </mxCell>
                <mxCell id="37" value="Salary" style="strokeColor=inherit;fillColor=inherit;gradientColor=inherit;strokeWidth=1;shadow=0;dashed=0;align=center;html=1;shape=mxgraph.mockup.text.rrect;rSize=0;fontSize=17;fontColor=#0000ff;" vertex="1" parent="35">
                    <mxGeometry x="224.36" width="125.64" height="25" as="geometry"/>
                </mxCell>
                <mxCell id="39" value="Home" style="strokeWidth=1;shadow=0;dashed=0;align=center;html=1;shape=mxgraph.mockup.text.rrect;rSize=0;fontSize=17;fontColor=#ffffff;fillColor=#008cff;strokeColor=#008cff;" vertex="1" parent="35">
                    <mxGeometry width="110" height="25" as="geometry"/>
                </mxCell>
            </root>
        </mxGraphModel>
    </diagram>
</mxfile>